<svg width="25" height="24" viewBox="0 0 25 24" fill="none" xmlns="http://www.w3.org/2000/svg">
<path d="M10.4526 16.167C10.3994 16.2201 10.3573 16.2832 10.3285 16.3526C10.2998 16.4221 10.285 16.4965 10.285 16.5716C10.285 16.6467 10.2998 16.7211 10.3285 16.7905C10.3573 16.86 10.3994 16.923 10.4526 16.9762C10.5057 17.0293 10.5688 17.0714 10.6382 17.1002C10.7076 17.1289 10.782 17.1437 10.8571 17.1437C10.9323 17.1437 11.0067 17.1289 11.0761 17.1002C11.1455 17.0714 11.2086 17.0293 11.2617 16.9762L15.8331 12.4047C15.8864 12.3517 15.9286 12.2886 15.9574 12.2192C15.9862 12.1497 16.001 12.0753 16.001 12.0002C16.001 11.925 15.9862 11.8506 15.9574 11.7812C15.9286 11.7117 15.8864 11.6487 15.8331 11.5956L11.2617 7.02416C11.1544 6.91686 11.0089 6.85658 10.8571 6.85658C10.7054 6.85658 10.5599 6.91686 10.4526 7.02416C10.3453 7.13146 10.285 7.27699 10.285 7.42873C10.285 7.58048 10.3453 7.72601 10.4526 7.8333L14.0491 11.4287H0.571429C0.419876 11.4287 0.274531 11.4889 0.167368 11.5961C0.0602039 11.7033 0 11.8486 0 12.0002C0 12.1517 0.0602039 12.2971 0.167368 12.4042C0.274531 12.5114 0.419876 12.5716 0.571429 12.5716H14.0491L10.4526 16.167Z" fill="#6981D4"/>
<path d="M12 2.23548e-06C9.66631 0.00142685 7.38368 0.683282 5.43157 1.96209C3.47947 3.24089 1.9426 5.06115 1.00913 7.2C0.976365 7.26915 0.957825 7.34418 0.954607 7.42063C0.951389 7.49708 0.963558 7.5734 0.990393 7.64506C1.01723 7.71672 1.05818 7.78226 1.11082 7.83779C1.16347 7.89332 1.22673 7.93772 1.29685 7.96834C1.36698 7.99896 1.44254 8.01519 1.51905 8.01606C1.59556 8.01692 1.67147 8.00241 1.74227 7.97339C1.81307 7.94437 1.87732 7.90142 1.93121 7.84709C1.9851 7.79277 2.02753 7.72818 2.05598 7.65714C3.05371 5.37106 4.80817 3.49823 7.02434 2.35358C9.24051 1.20893 11.7832 0.862262 14.2249 1.37188C16.6666 1.88149 18.8584 3.2163 20.4317 5.15186C22.005 7.08742 22.8639 9.50568 22.8639 12C22.8639 14.4943 22.005 16.9126 20.4317 18.8481C18.8584 20.7837 16.6666 22.1185 14.2249 22.6281C11.7832 23.1377 9.24051 22.7911 7.02434 21.6464C4.80817 20.5018 3.05371 18.6289 2.05598 16.3429C2.02753 16.2718 1.9851 16.2072 1.93121 16.1529C1.87732 16.0986 1.81307 16.0556 1.74227 16.0266C1.67147 15.9976 1.59556 15.9831 1.51905 15.9839C1.44254 15.9848 1.36698 16.001 1.29685 16.0317C1.22673 16.0623 1.16347 16.1067 1.11082 16.1622C1.05818 16.2177 1.01723 16.2833 0.990393 16.3549C0.963558 16.4266 0.951389 16.5029 0.954607 16.5794C0.957825 16.6558 0.976365 16.7309 1.00913 16.8C1.87464 18.7831 3.26027 20.4954 5.01933 21.7554C6.77838 23.0155 8.84541 23.7764 11.0016 23.9578C13.1578 24.1391 15.3229 23.7341 17.2677 22.7856C19.2125 21.837 20.8646 20.3803 22.0492 18.5696C23.2338 16.7589 23.9068 14.6616 23.9969 12.4996C24.087 10.3377 23.5909 8.19168 22.561 6.28868C21.5312 4.38568 20.006 2.79654 18.1468 1.68949C16.2877 0.582445 14.1638 -0.00131832 12 2.23548e-06Z" fill="#6981D4"/>
</svg>
