<svg width="16" height="16" viewBox="0 0 16 16" fill="none" xmlns="http://www.w3.org/2000/svg">
<path d="M10.0854 8.00001L15.5681 2.51726C16.144 1.94141 16.144 1.00774 15.5681 0.431887C14.9923 -0.143962 14.0586 -0.143962 13.4827 0.431887L8 5.91466L2.51726 0.431906C1.94141 -0.143943 1.00773 -0.143943 0.431886 0.431906C-0.143962 1.00775 -0.143962 1.94143 0.431886 2.51728L5.91463 8.00001L0.431905 13.4828C-0.143943 14.0586 -0.143943 14.9923 0.431905 15.5681C1.00775 16.144 1.94141 16.144 2.51726 15.5681L8 10.0854L13.4827 15.5681C14.0586 16.144 14.9922 16.144 15.5681 15.5681C16.1439 14.9923 16.1439 14.0586 15.5681 13.4828L10.0854 8.00001Z" fill="#6981D4"/>
</svg>
