<svg width="15" height="15" viewBox="0 0 15 15" fill="none" xmlns="http://www.w3.org/2000/svg">
<path d="M9.45503 7.50001L14.5951 2.35993C15.135 1.82007 15.135 0.944752 14.5951 0.404894C14.0552 -0.134965 13.1799 -0.134965 12.6401 0.404894L7.5 5.54499L2.35993 0.404912C1.82007 -0.134946 0.944751 -0.134946 0.404893 0.404912C-0.134964 0.94477 -0.134964 1.82009 0.404893 2.35995L5.54497 7.50001L0.404911 12.6401C-0.134946 13.1799 -0.134946 14.0552 0.404911 14.5951C0.944769 15.135 1.82007 15.135 2.35993 14.5951L7.5 9.45504L12.6401 14.5951C13.1799 15.135 14.0552 15.135 14.5951 14.5951C15.1349 14.0552 15.1349 13.1799 14.5951 12.6401L9.45503 7.50001Z" fill="#30377F"/>
</svg>
