<svg width="16" height="8" viewBox="0 0 16 8" fill="none" xmlns="http://www.w3.org/2000/svg">
<path d="M8.0611 7.99807C8.25934 7.98421 8.44711 7.90578 8.59442 7.7753L15.7053 1.51613C15.7921 1.43979 15.8627 1.34747 15.9131 1.24444C15.9634 1.14141 15.9925 1.02968 15.9987 0.915653C16.0049 0.801621 15.9881 0.687512 15.9492 0.579842C15.9103 0.472172 15.8501 0.37305 15.7721 0.288136C15.694 0.203222 15.5996 0.134178 15.4942 0.0849492C15.3889 0.0357201 15.2746 0.00726909 15.158 0.00122088C15.0414 -0.00482732 14.9248 0.0116455 14.8147 0.049699C14.7046 0.0877525 14.6033 0.146641 14.5165 0.223003L7.99998 5.96057L1.48354 0.223002C1.39673 0.146641 1.29538 0.0877524 1.1853 0.0496988C1.07521 0.0116453 0.958544 -0.00482749 0.84195 0.00122071C0.725355 0.00726891 0.611124 0.0357199 0.505773 0.084949C0.400422 0.134178 0.306017 0.203221 0.22795 0.288136C0.149883 0.37305 0.089681 0.472172 0.0507851 0.579842C0.0118893 0.687512 -0.00494427 0.801621 0.00125324 0.915653C0.00745075 1.02968 0.0365587 1.14141 0.086906 1.24444C0.137253 1.34747 0.207859 1.43979 0.29469 1.51613L7.40558 7.7753C7.49399 7.85353 7.59758 7.91356 7.71019 7.95183C7.82281 7.99011 7.94215 8.00583 8.0611 7.99807Z" fill="#30377F"/>
</svg>
