<svg width="66" height="83" viewBox="0 0 66 83" fill="none" xmlns="http://www.w3.org/2000/svg">
<g clip-path="url(#clip0_45_185)">
<path d="M33.0001 66.4001C26.4732 66.4001 20.093 64.453 14.6661 60.8049C9.23922 57.1569 5.00948 51.9717 2.51176 45.9052C0.0140345 39.8386 -0.639492 33.1632 0.633821 26.7229C1.90713 20.2827 5.0501 14.367 9.66526 9.72387C14.2804 5.08074 20.1605 1.91873 26.5619 0.637695C32.9633 -0.643336 39.5986 0.0141518 45.6286 2.52701C51.6586 5.03988 56.8125 9.29525 60.4386 14.755C64.0647 20.2148 66.0001 26.6337 66.0001 33.2001C65.99 42.0022 62.51 50.4409 56.3235 56.6649C50.137 62.8889 41.7491 66.39 33.0001 66.4001ZM33.0001 2.65577C26.9954 2.65574 21.1256 4.44709 16.1328 7.8033C11.1401 11.1595 7.24875 15.9298 4.95083 21.511C2.65291 27.0922 2.05165 33.2337 3.22307 39.1586C4.39449 45.0836 7.28599 50.5261 11.5319 54.7978C15.7778 59.0695 21.1875 61.9786 27.0768 63.1572C32.9661 64.3358 39.0705 63.7309 44.6181 61.4191C50.1657 59.1073 54.9073 55.1924 58.2434 50.1695C61.5794 45.1465 63.36 39.2412 63.3601 33.2001C63.351 25.1021 60.1494 17.3384 54.4578 11.6122C48.7662 5.88605 41.0493 2.66501 33.0001 2.65577Z" fill="#4660BA"/>
<path d="M47.3755 37.9712C47.1606 37.7241 46.8623 37.5658 46.5382 37.5269C46.2141 37.488 45.8872 37.5712 45.6204 37.7605C41.9203 40.379 37.5233 41.8184 33.0001 41.8921C28.4767 41.8184 24.0798 40.379 20.3796 37.7604C20.1129 37.5712 19.786 37.488 19.4619 37.5269C19.1378 37.5658 18.8395 37.724 18.6246 37.971C18.5021 38.1104 18.4102 38.2741 18.3546 38.4515C18.2991 38.6289 18.2812 38.816 18.3021 39.0008C18.323 39.1856 18.3823 39.3639 18.4761 39.5242C18.5699 39.6845 18.6961 39.8232 18.8465 39.9313C22.9887 42.8809 27.9256 44.4913 33.0001 44.5481C38.0745 44.4914 43.0114 42.8809 47.1535 39.9312C47.304 39.8231 47.4301 39.6845 47.5239 39.5242C47.6177 39.3639 47.6769 39.1857 47.6979 39.0009C47.7188 38.8161 47.7009 38.629 47.6454 38.4516C47.5898 38.2742 47.4979 38.1105 47.3755 37.9712V37.9712Z" fill="#4660BA"/>
<path d="M22.6101 25.4303C24.0419 25.4303 25.2026 24.2625 25.2026 22.8221C25.2026 21.3816 24.0419 20.2139 22.6101 20.2139C21.1783 20.2139 20.0176 21.3816 20.0176 22.8221C20.0176 24.2625 21.1783 25.4303 22.6101 25.4303Z" fill="#4660BA"/>
<path d="M43.3899 25.4303C44.8217 25.4303 45.9824 24.2625 45.9824 22.8221C45.9824 21.3816 44.8217 20.2139 43.3899 20.2139C41.9581 20.2139 40.7974 21.3816 40.7974 22.8221C40.7974 24.2625 41.9581 25.4303 43.3899 25.4303Z" fill="#4660BA"/>
</g>
<defs>
<clipPath id="clip0_45_185">
<rect width="66" height="83" fill="white"/>
</clipPath>
</defs>
</svg>
