<svg width="50" height="72" viewBox="0 0 50 72" fill="none" xmlns="http://www.w3.org/2000/svg">
<path d="M40.4835 40.6588C41.9358 40.1808 43.5493 39.6207 44.5176 38.2907C45.5063 36.9318 45.5154 35.2415 45.523 33.6068C45.5291 32.5853 45.5337 31.6201 45.7807 30.8601C46.011 30.1518 46.5574 29.3979 47.1365 28.5991C48.0683 27.3155 49.1239 25.8601 49.1239 24.1083C49.1239 22.3565 48.0675 20.9011 47.1365 19.6175C46.5574 18.8187 46.011 18.0648 45.7807 17.3565C45.5337 16.5965 45.5291 15.6313 45.523 14.6098C45.5147 12.9751 45.5063 11.2848 44.5176 9.92594C43.5197 8.55414 41.8332 8.0001 40.3459 7.51066C39.383 7.19374 38.474 6.89506 37.841 6.43374C37.2208 5.9823 36.663 5.21698 36.0724 4.40682C35.1445 3.13306 34.0926 1.68906 32.4564 1.15782C32.0277 1.01874 31.5603 0.948059 31.0686 0.948059C29.9468 0.948059 28.8296 1.3045 27.7489 1.64954C26.7594 1.9657 25.8254 2.26362 25 2.26362C24.1746 2.26362 23.2406 1.9657 22.2518 1.6503C21.1711 1.30526 20.0539 0.948819 18.9322 0.948819C18.4404 0.948819 17.973 1.0195 17.5436 1.15858C15.9074 1.68982 14.8555 3.13382 13.9276 4.40758C13.3378 5.21774 12.7807 5.9823 12.1598 6.43374C11.5267 6.8943 10.6178 7.19374 9.65484 7.51066C8.16676 7.99934 6.48108 8.55414 5.48244 9.92594C4.49444 11.2848 4.48532 12.9751 4.4762 14.6098C4.47088 15.6313 4.46556 16.5957 4.21932 17.3565C3.98904 18.0648 3.4426 18.8187 2.86272 19.6175C1.93096 20.9011 0.87532 22.3565 0.87532 24.1083C0.87532 25.8601 1.93096 27.3147 2.86272 28.5991C3.44184 29.3979 3.98904 30.1518 4.21932 30.8609C4.46632 31.6209 4.47164 32.5861 4.4762 33.6075C4.48532 35.2423 4.49368 36.9325 5.48244 38.2907C6.48032 39.6625 8.16676 40.2165 9.65408 40.7059C9.68068 40.7151 9.70576 40.7227 9.73236 40.7318L2.65448 66.3932C2.53136 66.8378 2.68868 67.312 3.05272 67.5955C3.41676 67.8797 3.91532 67.9155 4.3166 67.6875L10.8435 63.9817L14.5485 70.5086C14.7529 70.8688 15.1337 71.0862 15.5395 71.0862C15.5866 71.0862 15.6338 71.0831 15.6809 71.0771C16.1384 71.0208 16.5169 70.6933 16.6392 70.2487L23.2558 46.2615C23.8722 46.086 24.4604 45.953 25 45.953C25.5381 45.953 26.1256 46.0852 26.7412 46.2608L33.4444 70.2175C33.5675 70.6591 33.9429 70.9836 34.3982 71.0413C34.446 71.0474 34.4947 71.0505 34.5418 71.0505C34.9446 71.0505 35.3216 70.8377 35.5275 70.4827L39.3328 63.93L46.0148 67.6373C46.416 67.8592 46.9131 67.8205 47.2741 67.5347C47.6351 67.2497 47.7894 66.7762 47.6655 66.3331L40.4835 40.6588ZM15.1732 66.9883L12.2639 61.8636C11.9523 61.3149 11.2569 61.1226 10.7097 61.4349L5.58428 64.3442L11.8573 41.5974C11.9599 41.6582 12.0686 41.7145 12.1598 41.7813C12.78 42.2328 13.337 42.9981 13.9276 43.8075C14.8555 45.082 15.9074 46.5253 17.5436 47.0565C17.9723 47.1963 18.4397 47.2663 18.9314 47.2663C19.5174 47.2663 20.101 47.1667 20.6794 47.0253L15.1732 66.9883ZM21.5587 44.3935C20.2827 44.8001 19.0636 45.1535 18.2482 44.8882C17.3149 44.5857 16.5648 43.5552 15.7706 42.4653C15.1025 41.5488 14.4117 40.6003 13.502 39.9383C12.5793 39.2665 11.4545 38.8971 10.367 38.5392C9.09472 38.1204 7.8924 37.7252 7.32696 36.9477C6.7714 36.1847 6.76456 34.9261 6.75696 33.5939C6.75088 32.4432 6.7448 31.2531 6.38836 30.1556C6.04712 29.1038 5.36692 28.1659 4.70952 27.2593C3.91076 26.158 3.15684 25.1183 3.15684 24.1075C3.15684 23.0967 3.91152 22.0563 4.70952 20.9558C5.36692 20.0491 6.04712 19.1113 6.38836 18.0602C6.7448 16.962 6.75088 15.7719 6.75696 14.6212C6.7638 13.2897 6.77064 12.0311 7.32696 11.2673C7.8924 10.4899 9.09472 10.0947 10.3677 9.6759C11.4553 9.3187 12.5793 8.94858 13.5027 8.2775C14.4124 7.61478 15.1033 6.66706 15.7713 5.7505C16.5655 4.6599 17.3164 3.6301 18.2489 3.32762C19.0652 3.06086 20.2842 3.41502 21.5602 3.82238C22.6706 4.1773 23.8197 4.54362 25 4.54362C26.181 4.54362 27.3294 4.1773 28.4413 3.82238C29.7181 3.41502 30.9379 3.06238 31.7518 3.32762C32.6844 3.6301 33.4345 4.6599 34.2294 5.7505C34.8975 6.66782 35.5883 7.61554 36.498 8.27826C37.4207 8.9501 38.5447 9.31946 39.633 9.67742C40.9053 10.0954 42.1076 10.4914 42.673 11.2681C43.2286 12.0319 43.2354 13.2897 43.2423 14.622C43.2491 15.7734 43.2552 16.9628 43.6109 18.061C43.9521 19.1121 44.6323 20.0499 45.2897 20.9566C46.0892 22.0578 46.8432 23.0975 46.8432 24.1091C46.8432 25.1206 46.0892 26.1603 45.2905 27.2608C44.6323 28.1675 43.9521 29.1053 43.6109 30.1564C43.2544 31.2546 43.2484 32.444 43.2423 33.5954C43.2354 34.9269 43.2286 36.1855 42.673 36.9493C42.1076 37.726 40.906 38.1212 39.633 38.5399C38.5455 38.8979 37.4207 39.2673 36.4973 39.9391C35.5876 40.6018 34.8975 41.5495 34.2294 42.4661C33.4352 43.5567 32.6851 44.5865 31.7518 44.889C30.9364 45.1527 29.7173 44.8008 28.4413 44.3942C27.3294 44.0393 26.1803 43.673 25 43.673C23.8197 43.6722 22.6706 44.0385 21.5587 44.3935ZM39.4613 61.3931C38.9186 61.0914 38.2339 61.2807 37.923 61.818L34.9127 67.0019L29.3236 47.0269C29.9012 47.169 30.4842 47.267 31.0686 47.267C31.5603 47.267 32.0277 47.1963 32.4564 47.0573C34.0926 46.526 35.1445 45.0813 36.0732 43.8083C36.663 42.9981 37.2208 42.2335 37.8402 41.7821C37.993 41.6711 38.1632 41.5708 38.3448 41.4758L44.7349 64.3199L39.4613 61.3931Z" fill="#4660BA"/>
<path d="M40.7297 24.1083C40.7297 15.4351 33.6731 8.37854 25 8.37854C16.3261 8.37854 9.27028 15.4351 9.27028 24.1083C9.27028 32.7821 16.3269 39.838 25 39.838C33.6731 39.838 40.7297 32.7814 40.7297 24.1083ZM25 37.558C17.5839 37.558 11.5503 31.5243 11.5503 24.1083C11.5503 16.6922 17.5839 10.6585 25 10.6585C32.4168 10.6585 38.4497 16.6922 38.4497 24.1083C38.4497 31.5243 32.4168 37.558 25 37.558Z" fill="#4660BA"/>
</svg>
