<svg width="26" height="26" viewBox="0 0 26 26" fill="none" xmlns="http://www.w3.org/2000/svg">
<path d="M16.3887 13L25.2982 4.09055C26.2339 3.15479 26.2339 1.63757 25.2982 0.701816C24.3624 -0.233939 22.8452 -0.233939 21.9095 0.701816L13 9.61132L4.09054 0.701847C3.15479 -0.233907 1.63757 -0.233907 0.701815 0.701847C-0.233938 1.6376 -0.233938 3.15482 0.701815 4.09058L9.61127 13L0.701846 21.9095C-0.233907 22.8452 -0.233907 24.3624 0.701846 25.2982C1.6376 26.2339 3.15479 26.2339 4.09054 25.2982L13 16.3887L21.9095 25.2982C22.8452 26.2339 24.3624 26.2339 25.2982 25.2982C26.2339 24.3624 26.2339 22.8452 25.2982 21.9095L16.3887 13Z" fill="#DF0000"/>
</svg>
