<svg width="70" height="61" viewBox="0 0 70 61" fill="none" xmlns="http://www.w3.org/2000/svg">
<path d="M67.2302 36.4917C68.6326 35.279 69.2981 33.5983 69.1689 31.5697C69.037 29.5268 68.2769 27.8975 66.906 26.7219C63.7052 23.9743 58.0179 24.4479 53.6614 24.8159C51.3756 24.9985 50.7761 24.5676 50.6699 24.3821C52.1556 22.6216 60.4213 12.2641 55.6431 4.72551C53.8046 1.82658 52.0264 0.482671 50.2109 0.759424C47.7501 1.07043 46.7005 4.11775 46.5542 4.58865C46.018 7.24509 43.8296 14.5525 40.2187 16.4471C35.039 19.1634 30.04 29.5524 29.9483 29.8006L29.0505 31.0048H24.5019V30.805C24.5019 30.1601 23.9741 29.6351 23.3259 29.6351H1.99108C1.34286 29.6351 0.81514 30.1601 0.81514 30.805V59.4438C0.81514 60.0887 1.34286 60.6138 1.99108 60.6138H23.3264C23.9746 60.6138 24.5023 60.0887 24.5023 59.4438V59.1072H26.0654L28.2507 60.6566C28.4515 60.7993 28.6895 60.8764 28.9334 60.8764H58.9186C60.9606 60.8764 62.8392 59.852 63.9433 58.1401C64.8554 56.7277 65.1135 55.0328 64.6575 53.3722C65.9883 52.4306 66.8028 51.2608 67.0839 49.8883C67.4395 48.1677 66.8315 46.5669 66.3153 45.5969C67.6576 44.3158 68.4032 42.8549 68.5409 41.24C68.7102 39.2565 67.8927 37.533 67.2302 36.4917ZM22.1506 58.2739H3.16702V31.9748H22.1506V32.1746V57.9372V58.2739ZM64.9931 35.2134C64.6863 35.3903 64.4798 35.6957 64.4225 36.0436C64.3679 36.3918 64.4741 36.7484 64.7093 37.008C64.7266 37.028 66.39 38.9054 66.1979 41.0569C66.089 42.2895 65.3719 43.4279 64.0669 44.4466C63.5593 44.8403 63.4674 45.5707 63.8632 46.0786C63.8746 46.0957 65.1251 47.7649 64.7838 49.4198C64.5888 50.3671 63.8746 51.1888 62.6615 51.8622C62.128 52.1619 61.9589 52.918 62.2141 53.4715C62.7304 54.5929 62.6414 55.8341 61.9674 56.8783C61.2964 57.917 60.1578 58.5361 58.9187 58.5361H29.3092L27.1238 56.9867C26.9231 56.8441 26.6851 56.7669 26.4412 56.7669H24.5025V33.3445H29.6448C30.0176 33.3445 30.3675 33.1676 30.5884 32.868L31.9536 30.9962C32.0023 30.8934 36.8263 20.8697 41.3148 18.5129C46.6436 15.7194 48.7717 5.48454 48.8261 5.17641C49.047 4.49165 49.7668 3.17048 50.5068 3.07636C50.7993 3.04787 51.8576 3.13911 53.6588 5.97242C57.8461 12.5836 48.7861 22.9782 48.6942 23.0838C48.6168 23.1695 48.5537 23.2693 48.5048 23.3777C48.2381 23.9712 48.1406 24.9612 48.7401 25.8059C49.5402 26.9273 51.2065 27.3723 54.0631 27.1269C57.8059 26.8101 62.9167 26.385 65.3746 28.4937C66.2579 29.2527 66.7341 30.3084 66.823 31.7179C66.9262 33.3273 66.3469 34.4372 64.9931 35.2134Z" fill="#4660BA"/>
</svg>
