<svg width="11" height="11" viewBox="0 0 11 11" fill="none" xmlns="http://www.w3.org/2000/svg">
<path d="M10.9974 5.45799C10.9783 5.3217 10.8704 5.19261 10.691 5.09134L2.08468 0.202598C1.97971 0.142902 1.85277 0.0943596 1.7111 0.0597459C1.56943 0.0251323 1.41582 0.00512039 1.25902 0.000859363C1.10223 -0.00340167 0.945332 0.00816448 0.797285 0.0349055C0.649239 0.0616465 0.512946 0.103035 0.396189 0.156706C0.279432 0.210377 0.184497 0.275288 0.116807 0.347717C0.0491171 0.420146 0.00999733 0.498687 0.00168129 0.578846C-0.00663572 0.659004 0.016014 0.739215 0.0683383 0.814898C0.120662 0.890581 0.201633 0.960249 0.30663 1.01993L8.19579 5.50001L0.306629 9.98006C0.201633 10.0397 0.120661 10.1094 0.0683375 10.1851C0.0160132 10.2608 -0.00663656 10.341 0.00168042 10.4212C0.00999646 10.5013 0.0491162 10.5799 0.116806 10.6523C0.184496 10.7247 0.279431 10.7896 0.396188 10.8433C0.512945 10.897 0.649238 10.9383 0.797284 10.9651C0.945331 10.9918 1.10223 11.0034 1.25902 10.9991C1.41582 10.9949 1.56943 10.9749 1.7111 10.9403C1.85277 10.9056 1.97971 10.8571 2.08468 10.7974L10.691 5.90866C10.7986 5.84788 10.8811 5.77667 10.9338 5.69924C10.9864 5.62182 11.008 5.53977 10.9974 5.45799Z" fill="#6981D4"/>
</svg>
