<svg width="11" height="11" viewBox="0 0 11 11" fill="none" xmlns="http://www.w3.org/2000/svg">
<path d="M0.00264718 5.54201C0.0217095 5.6783 0.129556 5.80739 0.308962 5.90866L8.91532 10.7974C9.02029 10.8571 9.14723 10.9056 9.2889 10.9403C9.43056 10.9749 9.58418 10.9949 9.74097 10.9991C9.89777 11.0034 10.0547 10.9918 10.2027 10.9651C10.3508 10.9384 10.4871 10.897 10.6038 10.8433C10.7206 10.7896 10.8155 10.7247 10.8832 10.6523C10.9509 10.5799 10.99 10.5013 10.9983 10.4212C11.0066 10.341 10.984 10.2608 10.9317 10.1851C10.8793 10.1094 10.7984 10.0398 10.6934 9.98007L2.80421 5.49999L10.6934 1.01994C10.7984 0.960253 10.8793 0.890578 10.9317 0.814895C10.984 0.739211 11.0066 0.659001 10.9983 0.578842C10.99 0.498684 10.9509 0.42015 10.8832 0.347721C10.8155 0.275292 10.7206 0.210388 10.6038 0.156717C10.4871 0.103046 10.3508 0.0616574 10.2027 0.0349165C10.0547 0.00817556 9.89777 -0.00339752 9.74098 0.000863248C9.58418 0.00512401 9.43057 0.0251357 9.2889 0.0597494C9.14723 0.0943631 9.02029 0.142905 8.91532 0.202601L0.308962 5.09134C0.201399 5.15212 0.11885 5.22333 0.066227 5.30076C0.0136038 5.37818 -0.00801827 5.46023 0.00264718 5.54201V5.54201Z" fill="#6981D4"/>
</svg>
