<?xml version="1.0" encoding="utf-8"?><svg xmlns="http://www.w3.org/2000/svg" xmlns:xlink="http://www.w3.org/1999/xlink"><symbol viewBox="0 0 26 26" id="close" xmlns="http://www.w3.org/2000/svg"><path d="M16.389 13l8.91-8.91a2.396 2.396 0 00-3.39-3.388L13 9.612 4.09.701A2.396 2.396 0 00.703 4.09L9.612 13l-8.91 8.91a2.396 2.396 0 003.389 3.388L13 16.388l8.91 8.91a2.396 2.396 0 003.388-3.388L16.388 13z"/></symbol><symbol viewBox="0 0 28 27" id="green" xmlns="http://www.w3.org/2000/svg"><path d="M26.246 3.057c-2.433-4.519-22.172-3.608-24.729 0-2.556 3.607-1.276 17.617-.513 20.351.763 2.734 23.001 5.137 25.242 2.354 2.241-2.782 2.434-18.187 0-22.705z"/></symbol><symbol viewBox="0 0 70 61" id="like" xmlns="http://www.w3.org/2000/svg"><path d="M67.23 36.492c1.403-1.213 2.068-2.894 1.939-4.922-.132-2.043-.892-3.672-2.263-4.848-3.2-2.748-8.888-2.274-13.245-1.906-2.285.183-2.885-.248-2.991-.434 1.486-1.76 9.751-12.118 4.973-19.656-1.838-2.9-3.617-4.243-5.432-3.967-2.46.311-3.51 3.359-3.657 3.83-.536 2.656-2.724 9.963-6.335 11.858-5.18 2.716-10.179 13.105-10.27 13.354l-.899 1.204h-4.548v-.2c0-.645-.528-1.17-1.176-1.17H1.99c-.648 0-1.176.525-1.176 1.17v28.639c0 .645.528 1.17 1.176 1.17h21.335c.649 0 1.176-.525 1.176-1.17v-.337h1.563l2.186 1.55c.2.142.438.22.682.22H58.92a5.956 5.956 0 005.024-2.737c.912-1.412 1.17-3.107.715-4.768 1.33-.941 2.145-2.111 2.426-3.484.355-1.72-.252-3.321-.769-4.291 1.343-1.281 2.088-2.742 2.226-4.357.17-1.983-.648-3.707-1.31-4.748zM22.15 58.274H3.168v-26.3h18.984v26.3zm42.843-23.06a1.17 1.17 0 00-.284 1.795c.018.019 1.681 1.896 1.489 4.048-.109 1.232-.826 2.37-2.131 3.39a1.16 1.16 0 00-.204 1.632c.012.017 1.262 1.686.92 3.34-.194.948-.908 1.77-2.122 2.443-.533.3-.702 1.056-.447 1.61a3.484 3.484 0 01-.247 3.406 3.613 3.613 0 01-3.048 1.658h-29.61l-2.185-1.55c-.2-.142-.439-.22-.683-.22h-1.938V33.345h5.142c.373 0 .723-.176.943-.476l1.366-1.872c.048-.103 4.872-10.126 9.36-12.483 5.33-2.794 7.458-13.028 7.512-13.337.221-.684.94-2.006 1.68-2.1.293-.028 1.352.063 3.153 2.896 4.187 6.612-4.873 17.006-4.965 17.112a1.13 1.13 0 00-.19.294c-.266.593-.363 1.583.236 2.428.8 1.121 2.466 1.566 5.323 1.32 3.743-.316 8.854-.741 11.312 1.368.883.759 1.36 1.814 1.448 3.224.103 1.61-.476 2.72-1.83 3.495z"/></symbol><symbol viewBox="0 0 25 24" id="link" xmlns="http://www.w3.org/2000/svg"><path d="M10.453 16.167a.572.572 0 10.809.81l4.571-4.572a.57.57 0 000-.81l-4.571-4.57a.572.572 0 10-.81.808l3.597 3.596H.571a.571.571 0 100 1.143H14.05l-3.596 3.595z"/><path d="M12 0A12 12 0 001.01 7.2a.571.571 0 101.046.457 10.857 10.857 0 110 8.686.57.57 0 10-1.047.457A12 12 0 1012 0z"/></symbol><symbol viewBox="0 0 29 39" id="map" xmlns="http://www.w3.org/2000/svg"><path d="M14.15 0C3.285 0-3.544 12.141 1.928 21.767L14.15 38.14l12.222-16.374C31.842 12.14 25.013 0 14.15 0zm0 21.407a6.971 6.971 0 01-6.99-6.99 6.971 6.971 0 016.99-6.988 6.971 6.971 0 016.989 6.989 6.971 6.971 0 01-6.99 6.989z"/></symbol><symbol viewBox="0 0 11 11" id="small_left" xmlns="http://www.w3.org/2000/svg"><path d="M.003 5.542c.019.136.127.265.306.367l8.606 4.888c.105.06.232.109.374.143a2.27 2.27 0 00.914.025 1.68 1.68 0 00.4-.122.89.89 0 00.28-.19.402.402 0 00.115-.232.348.348 0 00-.066-.236.715.715 0 00-.239-.205L2.804 5.5l7.89-4.48a.715.715 0 00.238-.205.348.348 0 00.066-.236.402.402 0 00-.115-.231.888.888 0 00-.28-.191 1.683 1.683 0 00-.4-.122 2.27 2.27 0 00-.914.025 1.463 1.463 0 00-.374.143L.31 5.09a.712.712 0 00-.243.21.344.344 0 00-.063.241z"/></symbol><symbol viewBox="0 0 11 11" id="small_right" xmlns="http://www.w3.org/2000/svg"><path d="M10.997 5.458c-.019-.136-.127-.265-.306-.367L2.085.203A1.463 1.463 0 001.71.06 2.27 2.27 0 00.797.035a1.684 1.684 0 00-.4.122.889.889 0 00-.28.19.402.402 0 00-.115.232c-.009.08.014.16.066.236a.714.714 0 00.239.205L8.196 5.5.306 9.98a.713.713 0 00-.238.205.347.347 0 00-.066.236c.008.08.047.159.115.231a.89.89 0 00.28.191c.116.054.252.095.4.122a2.27 2.27 0 00.914-.025c.142-.034.269-.083.374-.143L10.69 5.91a.713.713 0 00.243-.21.345.345 0 00.063-.241z"/></symbol><symbol viewBox="0 0 42 63" id="top" xmlns="http://www.w3.org/2000/svg"><path fill-rule="evenodd" clip-rule="evenodd" d="M13.929 22.657l6.364-6.364a1 1 0 011.414 0l6.364 6.364a1 1 0 01-1.414 1.414L22 19.414V62a1 1 0 11-2 0V19.414l-4.657 4.657a1 1 0 01-1.414-1.414zm14.66 15.303a2.06 2.06 0 01.773-2.832l.076-.043a2.115 2.115 0 012.87.75 2.06 2.06 0 01-.758 2.835l-.094.054a2.115 2.115 0 01-2.867-.764zm-15.178 0a2.115 2.115 0 01-2.867.764 28.822 28.822 0 01-.094-.054 2.06 2.06 0 01-.759-2.836 2.115 2.115 0 012.871-.749l.076.043a2.06 2.06 0 01.773 2.832zm22.879-6.056a2.06 2.06 0 01-.759-2.836l.044-.074a2.115 2.115 0 012.867-.764 2.06 2.06 0 01.719 2.924 2.115 2.115 0 01-2.871.75zm-30.58 0a2.115 2.115 0 01-2.926-.843 2.06 2.06 0 01.774-2.831 2.115 2.115 0 012.867.764l.044.074a2.06 2.06 0 01-.759 2.835zm34.185-9.045c-1.16-.003-2.098-.934-2.095-2.08v-.086c-.003-1.145.935-2.076 2.095-2.079 1.16-.003 2.102.923 2.105 2.069v.108c-.003 1.145-.946 2.07-2.105 2.068zm-37.79 0C.945 22.862.003 21.936 0 20.79v-.107c.003-1.146.946-2.072 2.105-2.069 1.16.003 2.098.934 2.095 2.08v.086c.003 1.145-.935 2.076-2.095 2.079zm36.337-9.616a2.115 2.115 0 01-2.867-.764l-.044-.074a2.06 2.06 0 01.759-2.835 2.115 2.115 0 012.925.842 2.06 2.06 0 01-.773 2.831zm-34.884 0a2.06 2.06 0 01-.719-2.924 2.115 2.115 0 012.871-.75 2.06 2.06 0 01.759 2.836l-.044.074a2.115 2.115 0 01-2.867.764zm28.75-7.604a2.115 2.115 0 01-2.87.749l-.076-.043a2.06 2.06 0 01-.773-2.832 2.114 2.114 0 012.867-.763l.094.053a2.06 2.06 0 01.759 2.836zm-22.617 0a2.06 2.06 0 01.759-2.836l.094-.053a2.114 2.114 0 012.867.763 2.06 2.06 0 01-.773 2.832l-.075.043a2.115 2.115 0 01-2.872-.75zm13.458-3.56c-.003 1.145-.945 2.071-2.105 2.068h-.088c-1.16.003-2.102-.923-2.105-2.068C18.848.934 19.786.003 20.945 0h.11c1.16.003 2.097.934 2.094 2.079z"/></symbol></svg>