<svg width="16" height="8" viewBox="0 0 16 8" fill="none" xmlns="http://www.w3.org/2000/svg">
<path d="M7.88397 7.99807C8.07785 7.98421 8.2615 7.90578 8.40557 7.7753L15.3602 1.51613C15.4451 1.43979 15.5142 1.34747 15.5634 1.24444C15.6127 1.14141 15.6411 1.02968 15.6472 0.915653C15.6533 0.801621 15.6368 0.687512 15.5988 0.579842C15.5607 0.472172 15.5018 0.37305 15.4255 0.288136C15.3491 0.203221 15.2568 0.134178 15.1538 0.0849492C15.0507 0.0357201 14.939 0.00726915 14.825 0.00122088C14.7109 -0.00482739 14.5968 0.0116455 14.4892 0.049699C14.3815 0.0877525 14.2824 0.146641 14.1975 0.223003L7.8242 5.96057L1.45094 0.223002C1.36604 0.146641 1.26692 0.0877524 1.15925 0.0496988C1.05159 0.0116453 0.937482 -0.00482755 0.823449 0.00122071C0.709417 0.00726898 0.597696 0.0357199 0.49466 0.084949C0.391623 0.134178 0.299292 0.203221 0.222941 0.288136C0.146589 0.37305 0.0877104 0.472172 0.0496692 0.579842C0.011628 0.687512 -0.00483563 0.801621 0.0012257 0.915653C0.00728704 1.02968 0.0357554 1.14141 0.0849963 1.24444C0.134237 1.34747 0.203292 1.43979 0.288215 1.51613L7.24285 7.7753C7.32932 7.85353 7.43063 7.91356 7.54077 7.95183C7.65091 7.99011 7.76763 8.00583 7.88397 7.99807V7.99807Z" fill="#444444"/>
</svg>
