<svg width="128" height="40" viewBox="0 0 128 40" fill="none" xmlns="http://www.w3.org/2000/svg">
<path d="M35.7872 14.8498H30.4932V12.4498H44.4693V14.8498H39.1753V26.9906H35.7872V14.8498ZM3.38814 19.7908C3.38814 20.5672 3.45872 21.2025 3.5999 21.8378C3.74107 22.4731 3.95283 22.9672 4.30576 23.3907C4.5881 23.8142 5.01162 24.1671 5.57631 24.4495C6.07041 24.7318 6.77627 24.8024 7.55272 24.8024C8.32917 24.8024 9.03503 24.7318 9.74089 24.5907C10.4468 24.4495 11.1526 24.2377 11.8585 23.9554L12.6349 26.1435C11.9291 26.4965 11.082 26.7788 10.0938 26.9906C9.10562 27.2023 8.11741 27.3435 7.05862 27.3435C5.71748 27.3435 4.5881 27.1318 3.67048 26.7788C2.75286 26.4259 2.047 25.8612 1.48231 25.2259C0.91762 24.5907 0.56469 23.8142 0.352931 22.8966C0.141172 21.979 0 21.0613 0 20.0026C0 19.1555 0.0705859 18.3085 0.282344 17.3909C0.494103 16.4732 0.847034 15.6262 1.34114 14.8498C1.90583 14.0733 2.61169 13.438 3.52931 12.9439C4.44693 12.4498 5.71748 12.1675 7.19979 12.1675C7.83507 12.1675 8.61152 12.2381 9.38796 12.3087C10.1644 12.3792 10.9409 12.591 11.7879 12.8733L11.1526 15.2027C10.4468 14.9909 9.81148 14.8498 9.24679 14.7792C8.61152 14.7792 8.11741 14.7792 7.62331 14.7792C6.28217 14.7792 5.22338 15.2027 4.51752 16.1203C3.74107 16.9673 3.38814 18.2379 3.38814 19.7908ZM56.7513 26.9906V17.1085H56.6101L49.7633 26.9906H46.5163V12.4498H49.9044V22.2613H50.0456L56.8219 12.4498H60.1394V26.9906H56.7513ZM25.0581 26.9906V17.1085H24.9169L18.0701 26.9906H14.8231V12.4498H18.2112V22.2613H18.3524L25.1287 12.4498H28.3757V26.9906H25.0581Z" fill="#00B1E0"/>
<path d="M99.8089 20.3551V24.6609H103.479C104.115 24.6609 104.609 24.4491 105.103 24.0962C105.597 23.7433 105.809 23.1786 105.809 22.4021C105.809 22.0492 105.738 21.6963 105.597 21.4845C105.456 21.2022 105.315 20.9904 105.032 20.8492C104.82 20.7081 104.538 20.5669 104.256 20.4963C103.973 20.4257 103.621 20.3551 103.268 20.3551H99.8089ZM96.4207 12.4495H107.715V14.8494H99.8089V18.167H103.903C104.679 18.167 105.456 18.2376 106.091 18.4493C106.726 18.6611 107.291 18.8728 107.785 19.2964C108.279 19.6493 108.632 20.0728 108.844 20.6375C109.126 21.2022 109.267 21.7669 109.267 22.5433C109.267 23.2492 109.126 23.8845 108.914 24.4491C108.703 25.0138 108.35 25.5079 107.926 25.8609C107.503 26.2138 107.009 26.5667 106.373 26.7785C105.738 26.9902 105.103 27.0608 104.326 27.0608H96.4207V12.4495ZM72.9155 26.9902V14.8494H68.6098L68.5392 16.4023C68.398 17.9552 68.3274 19.4375 68.1863 20.7787C68.0451 22.1198 67.8333 23.2492 67.4804 24.2374C67.1275 25.2256 66.5628 26.002 65.8569 26.6373C65.151 27.2726 64.0923 27.6961 62.8217 27.9785L61.9747 25.7903C62.7511 25.5079 63.3864 25.155 63.8805 24.6609C64.304 24.2374 64.6569 23.6727 64.8687 22.9668C65.0805 22.261 65.2216 21.3434 65.2922 20.2846C65.3628 19.2258 65.4334 17.8846 65.504 16.3317L65.7157 12.5907H76.3743V27.1314H72.9155V26.9902ZM85.0564 20.8492C84.1387 20.9198 83.4329 21.061 83.0094 21.4139C82.5858 21.7669 82.3741 22.1904 82.3741 22.7551C82.3741 23.3904 82.5858 23.8845 82.9388 24.1668C83.3623 24.5197 83.9976 24.6609 84.9152 24.6609C85.4799 24.6609 86.1152 24.5197 86.821 24.308C87.4563 24.0962 88.1621 23.7433 88.7268 23.3198V20.7081L85.0564 20.8492ZM91.9738 24.6609H93.9502L94.162 26.4256C93.7385 26.6373 92.3973 27.3432 91.0562 27.3432C89.4327 27.3432 89.0092 26.5667 88.868 25.5079H88.7268C88.1621 25.9315 87.7386 26.2844 87.1739 26.4961C86.6093 26.7785 86.1151 26.9197 85.6916 27.0608C85.1975 27.202 84.774 27.2726 84.4211 27.2726C84.0681 27.2726 83.7858 27.2726 83.5035 27.2726C82.5858 27.2726 81.8094 27.1314 81.2447 26.8491C80.68 26.5667 80.1859 26.2138 79.833 25.7903C79.48 25.3668 79.2683 24.8727 79.1271 24.4491C78.9859 23.955 78.9154 23.5315 78.9154 23.108C78.9154 22.4021 79.0565 21.7669 79.4095 21.2728C79.6918 20.7081 80.1859 20.2846 80.68 19.9316C81.2447 19.5787 81.88 19.2964 82.5858 19.0846C83.2917 18.8728 84.1387 18.8022 84.9858 18.7317L88.7268 18.5905V17.7435C88.7268 16.6847 88.5151 15.9082 88.0916 15.4847C87.6681 15.0612 86.821 14.8494 85.621 14.8494C84.8446 14.8494 84.0681 14.92 83.2211 15.0612C82.3741 15.2024 81.5976 15.4141 80.8212 15.6259C80.7506 15.2729 80.3271 13.8612 80.1859 13.5083C81.0329 13.1554 82.0917 12.873 83.1505 12.6613C84.2799 12.4495 85.3387 12.3789 86.3975 12.3789C87.2445 12.3789 88.021 12.4495 88.7268 12.6613C89.4327 12.8024 89.9974 13.0848 90.4915 13.5083C90.9856 13.8612 91.3385 14.4259 91.6209 15.0612C91.9032 15.6965 92.0444 16.4729 92.0444 17.3905V24.6609H91.9738Z" fill="#F05B72"/>
<path d="M125.643 22.7551C123.949 23.1786 122.255 22.1198 121.832 20.4963C121.408 18.8728 122.467 17.1788 124.091 16.7552C125.785 16.3317 127.479 17.3905 127.902 19.014C128.326 20.6375 127.337 22.3316 125.643 22.7551Z" fill="#F05B72"/>
<path d="M118.938 6.80287C117.879 7.79108 117.879 9.48515 118.867 10.4734C119.855 11.5321 121.549 11.5321 122.679 10.5439C123.738 9.55573 123.738 7.86167 122.749 6.87346C121.691 5.81467 119.997 5.81467 118.938 6.80287Z" fill="#00B0E0"/>
<path d="M109.338 1.57941C108.985 2.70879 109.691 3.90875 110.82 4.26168C112.02 4.61461 113.22 3.97934 113.573 2.77937C113.926 1.64999 113.22 0.450028 112.091 0.0970967C110.891 -0.255834 109.691 0.379442 109.338 1.57941Z" fill="#00B0E0"/>
<path d="M118.938 32.708C117.879 31.7198 117.879 30.0257 118.867 29.0375C119.855 27.9787 121.549 27.9787 122.679 28.9669C123.738 29.9551 123.738 31.6492 122.749 32.6374C121.691 33.6256 119.997 33.6962 118.938 32.708Z" fill="#00B0E0"/>
<path d="M109.338 37.9312C108.985 36.8018 109.691 35.6019 110.82 35.249C112.02 34.896 113.22 35.5313 113.573 36.7313C113.926 37.8606 113.22 39.0606 112.091 39.4135C110.891 39.6959 109.691 39.0606 109.338 37.9312Z" fill="#00B0E0"/>
</svg>
