<svg width="11" height="11" viewBox="0 0 11 11" fill="none" xmlns="http://www.w3.org/2000/svg">
<path d="M10.9974 5.45799C10.9783 5.3217 10.8704 5.19261 10.691 5.09134L2.08468 0.202599C1.97971 0.142903 1.85277 0.0943612 1.7111 0.0597476C1.56943 0.025134 1.41582 0.00512207 1.25902 0.000861066C1.10223 -0.00339994 0.94533 0.00816624 0.797283 0.0349073C0.649237 0.0616483 0.512944 0.103037 0.396187 0.156708C0.27943 0.210379 0.184495 0.27529 0.116805 0.347719C0.0491152 0.420148 0.0099955 0.498689 0.00167946 0.578848C-0.00663752 0.659006 0.0160122 0.739217 0.0683366 0.814899C0.12066 0.890583 0.201632 0.960251 0.306628 1.01993L8.19579 5.50001L0.306629 9.98007C0.201632 10.0397 0.120661 10.1094 0.0683374 10.1851C0.0160131 10.2608 -0.00663668 10.341 0.00168032 10.4212C0.00999637 10.5013 0.0491161 10.5799 0.116806 10.6523C0.184496 10.7247 0.279431 10.7896 0.396188 10.8433C0.512945 10.897 0.649238 10.9383 0.797284 10.9651C0.945331 10.9918 1.10223 11.0034 1.25902 10.9991C1.41582 10.9949 1.56943 10.9749 1.7111 10.9403C1.85277 10.9056 1.97971 10.8571 2.08468 10.7974L10.691 5.90866C10.7986 5.84788 10.8811 5.77667 10.9338 5.69924C10.9864 5.62182 11.008 5.53977 10.9974 5.45799Z" fill="white"/>
</svg>
