<svg width="8" height="11" viewBox="0 0 8 11" fill="none" xmlns="http://www.w3.org/2000/svg">
<path d="M7.99807 5.45799C7.98421 5.3217 7.90578 5.19261 7.7753 5.09134L1.51613 0.202599C1.43979 0.142903 1.34747 0.0943609 1.24443 0.0597473C1.1414 0.0251337 1.02968 0.00512184 0.915652 0.000860834C0.80162 -0.00340017 0.687511 0.008166 0.579841 0.034907C0.472171 0.0616481 0.373049 0.103037 0.288135 0.156707C0.20322 0.210378 0.134177 0.275289 0.0849481 0.347719C0.0357189 0.420148 0.00726799 0.498688 0.00121979 0.578848C-0.0048284 0.659006 0.0116444 0.739217 0.0496979 0.814899C0.0877515 0.890583 0.14664 0.960251 0.223002 1.01993L5.96057 5.50001L0.223002 9.98007C0.146641 10.0397 0.0877523 10.1094 0.0496988 10.1851C0.0116453 10.2608 -0.00482756 10.341 0.00122065 10.4212C0.00726886 10.5013 0.0357198 10.5799 0.084949 10.6523C0.134178 10.7247 0.203221 10.7896 0.288136 10.8433C0.37305 10.897 0.472172 10.9383 0.579842 10.9651C0.687512 10.9918 0.801621 11.0034 0.915653 10.9991C1.02968 10.9949 1.14141 10.9749 1.24444 10.9403C1.34747 10.9056 1.43979 10.8571 1.51613 10.7974L7.7753 5.90866C7.85353 5.84788 7.91356 5.77667 7.95183 5.69924C7.99011 5.62182 8.00583 5.53977 7.99807 5.45799Z" fill="#AEAEAE"/>
</svg>
