<svg width="79" height="51" viewBox="0 0 79 51" fill="none" xmlns="http://www.w3.org/2000/svg">
<g clip-path="url(#clip0_45_172)">
<path d="M39.5254 0C37.4896 0 35.4996 0.601225 33.8069 1.72765C32.1142 2.85407 30.7949 4.4551 30.0158 6.32827C29.2367 8.20144 29.0329 10.2626 29.4301 12.2512C29.8272 14.2397 30.8076 16.0663 32.2471 17.5C33.6866 18.9337 35.5207 19.91 37.5173 20.3055C39.514 20.7011 41.5836 20.4981 43.4645 19.7222C45.3453 18.9463 46.9529 17.6324 48.0839 15.9466C49.2149 14.2607 49.8186 12.2788 49.8186 10.2513C49.8186 7.53245 48.7341 4.92501 46.8038 3.00252C44.8735 1.08004 42.2554 0 39.5254 0ZM39.5254 2.71658C41.0363 2.70645 42.516 3.14403 43.7764 3.97367C45.0369 4.80331 46.0211 5.98753 46.604 7.37575C47.1869 8.76397 47.3421 10.2935 47.0498 11.7698C46.7575 13.246 46.0311 14.6024 44.9627 15.6664C43.8944 16.7304 42.5325 17.4539 41.0501 17.745C39.5678 18.0361 38.0321 17.8815 36.6382 17.301C35.2443 16.7205 34.0552 15.7403 33.2222 14.4849C32.3892 13.2296 31.9498 11.7559 31.96 10.2513C31.9463 9.2532 32.132 8.26238 32.506 7.33637C32.8801 6.41036 33.4352 5.5676 34.1391 4.85704C34.843 4.14649 35.6816 3.58231 36.6063 3.19726C37.5309 2.81221 38.5232 2.61398 39.5254 2.61407V2.71658ZM13.2264 7.7397C11.4798 7.67837 9.75475 8.13942 8.27363 9.06343C6.79251 9.98743 5.62319 11.332 4.91639 12.9239C4.20958 14.5158 3.99768 16.2821 4.308 17.995C4.61832 19.708 5.43664 21.2891 6.65747 22.5346C7.87831 23.7801 9.44573 24.633 11.1577 24.9832C12.8697 25.3334 14.6477 25.165 16.2627 24.4997C17.8777 23.8343 19.2555 22.7025 20.2187 21.2501C21.1819 19.7977 21.6863 18.0912 21.6668 16.3508C21.6417 14.1099 20.7507 11.9647 19.1789 10.3611C17.607 8.75748 15.4752 7.81866 13.2264 7.7397ZM65.8245 7.7397C64.0919 7.72955 62.3953 8.23195 60.9497 9.18322C59.5042 10.1345 58.3748 11.4918 57.7047 13.0831C57.0346 14.6743 56.8539 16.4279 57.1857 18.1216C57.5175 19.8152 58.3466 21.3726 59.5682 22.5963C60.7897 23.8201 62.3485 24.6551 64.0471 24.9955C65.7457 25.3359 67.5075 25.1663 69.1092 24.5083C70.7109 23.8504 72.0804 22.7336 73.044 21.2996C74.0077 19.8655 74.5222 18.1788 74.5222 16.4533C74.5222 14.1511 73.6075 11.9425 71.9778 10.3099C70.3482 8.67725 68.136 7.75324 65.8245 7.7397ZM13.2264 10.3538C14.4195 10.3436 15.5887 10.6867 16.5857 11.3394C17.5827 11.9922 18.3625 12.9252 18.8261 14.0201C19.2898 15.1149 19.4164 16.3223 19.1899 17.489C18.9634 18.6556 18.394 19.729 17.554 20.5728C16.7139 21.4166 15.6411 21.9929 14.4717 22.2285C13.3022 22.4641 12.0889 22.3483 10.9856 21.896C9.88232 21.4436 8.93883 20.675 8.27487 19.6878C7.61092 18.7005 7.25643 17.539 7.25639 16.3508C7.24959 15.5656 7.39899 14.787 7.69597 14.0597C7.99295 13.3324 8.43162 12.6709 8.98667 12.1133C9.54171 11.5558 10.2021 11.1132 10.9298 10.8112C11.6575 10.5092 12.4381 10.3537 13.2264 10.3538ZM65.8245 10.3538C67.0175 10.3436 68.1868 10.6867 69.1837 11.3394C70.1807 11.9922 70.9605 12.9252 71.4242 14.0201C71.8878 15.1149 72.0144 16.3223 71.7879 17.489C71.5614 18.6556 70.992 19.729 70.152 20.5728C69.312 21.4166 68.2392 21.9929 67.0697 22.2285C65.9003 22.4641 64.6869 22.3483 63.5836 21.896C62.4804 21.4436 61.5369 20.675 60.8729 19.6878C60.209 18.7005 59.8545 17.539 59.8544 16.3508C59.8476 15.5656 59.997 14.787 60.294 14.0597C60.591 13.3324 61.0297 12.6709 61.5847 12.1133C62.1398 11.5558 62.8002 11.1132 63.5279 10.8112C64.2556 10.5092 65.0361 10.3537 65.8245 10.3538ZM39.5254 22.3477C37.4462 22.341 35.3861 22.743 33.4632 23.5308C31.5403 24.3186 29.7925 25.4766 28.3199 26.9385C26.8472 28.4003 25.6788 30.1373 24.8816 32.0498C24.0843 33.9623 23.674 36.0127 23.674 38.0834V49.6673C23.667 49.8466 23.6965 50.0254 23.7607 50.1931C23.8248 50.3607 23.9223 50.5138 24.0472 50.643C24.1722 50.7722 24.322 50.875 24.4878 50.9451C24.6536 51.0153 24.8319 51.0514 25.0121 51.0513H53.9359C54.116 51.0514 54.2943 51.0153 54.4601 50.9451C54.6259 50.875 54.7758 50.7722 54.9007 50.643C55.0257 50.5138 55.1231 50.3607 55.1873 50.1931C55.2514 50.0254 55.2809 49.8466 55.274 49.6673V38.0834C55.274 33.9189 53.6164 29.9242 50.6645 26.9747C47.7125 24.0252 43.7069 22.3613 39.5254 22.3477ZM39.5254 25.0643C41.2397 25.0643 42.9371 25.4014 44.5202 26.0563C46.1033 26.7112 47.541 27.671 48.7508 28.8806C49.9606 30.0902 50.9186 31.5259 51.5699 33.1051C52.2213 34.6844 52.5531 36.3762 52.5463 38.0834V48.3347H26.4017V38.0834C26.3948 36.3675 26.7299 34.6673 27.3877 33.0813C28.0454 31.4953 29.0127 30.0551 30.2334 28.8441C31.4541 27.6331 32.904 26.6755 34.499 26.0267C36.0941 25.3778 37.8025 25.0507 39.5254 25.0643ZM13.2264 26.8583C11.4851 26.8583 9.76096 27.2007 8.15286 27.8659C6.54476 28.5311 5.08437 29.506 3.85548 30.7346C2.62659 31.9633 1.65339 33.4215 0.991722 35.0256C0.330051 36.6298 -0.00706704 38.3482 -0.000291576 40.0824V49.6161C-0.00722005 49.7954 0.0222682 49.9742 0.0864056 50.1418C0.150543 50.3095 0.248009 50.4625 0.372961 50.5917C0.497913 50.721 0.647778 50.8237 0.813573 50.8939C0.979368 50.964 1.15768 51.0001 1.33782 51H16.5202C16.8819 51 17.2288 50.8569 17.4846 50.6022C17.7404 50.3474 17.8841 50.002 17.8841 49.6417C17.8841 49.2815 17.7404 48.936 17.4846 48.6813C17.2288 48.4265 16.8819 48.2834 16.5202 48.2834H2.7274V40.0824C2.69305 38.7148 2.93392 37.3542 3.4358 36.0807C3.93769 34.8072 4.69043 33.6467 5.64968 32.6674C6.60893 31.6882 7.75528 30.9101 9.02118 30.379C10.2871 29.8479 11.6469 29.5745 13.0206 29.5749C14.7057 29.5675 16.367 29.9723 17.8583 30.7538C18.0239 30.8514 18.2072 30.9155 18.3977 30.9426C18.5882 30.9697 18.7821 30.9591 18.9685 30.9115C19.1549 30.8639 19.33 30.7802 19.4839 30.6652C19.6379 30.5502 19.7675 30.4061 19.8655 30.2412C19.9635 30.0763 20.0279 29.8938 20.0551 29.7041C20.0823 29.5144 20.0717 29.3212 20.0239 29.1356C19.9761 28.9499 19.8921 28.7755 19.7766 28.6222C19.6611 28.4689 19.5164 28.3398 19.3508 28.2422C17.4526 27.2921 15.3505 26.8171 13.2264 26.8583ZM65.8245 26.8583C63.6529 26.8498 61.5132 27.3782 59.5971 28.396C59.2763 28.5591 59.0338 28.8425 58.9228 29.1837C58.8118 29.5249 58.8415 29.8961 59.0052 30.2156C59.169 30.535 59.4536 30.7766 59.7962 30.8872C60.1388 30.9977 60.5115 30.9682 60.8323 30.805C62.4108 29.9552 64.185 29.5311 65.9789 29.5749C67.3525 29.5745 68.7123 29.8479 69.9782 30.379C71.2441 30.9101 72.3905 31.6882 73.3497 32.6674C74.309 33.6467 75.0617 34.8072 75.5636 36.0807C76.0655 37.3542 76.3064 38.7148 76.272 40.0824V48.2834H62.3248C61.9631 48.2834 61.6162 48.4265 61.3604 48.6813C61.1046 48.936 60.9609 49.2815 60.9609 49.6417C60.9609 50.002 61.1046 50.3474 61.3604 50.6022C61.6162 50.8569 61.9631 51 62.3248 51H77.7645C77.9445 51.0069 78.1241 50.9775 78.2924 50.9137C78.4608 50.8498 78.6144 50.7527 78.7442 50.6283C78.8739 50.5038 78.9771 50.3546 79.0476 50.1895C79.118 50.0243 79.1542 49.8467 79.1541 49.6673V40.0824C79.161 38.3396 78.8205 36.6127 78.1524 35.0018C77.4843 33.391 76.5019 31.9281 75.2621 30.6981C74.0223 29.4681 72.5497 28.4954 70.9297 27.8363C69.3097 27.1771 67.5744 26.8447 65.8245 26.8583Z" fill="#4660BA"/>
</g>
<defs>
<clipPath id="clip0_45_172">
<rect width="79" height="51" fill="white"/>
</clipPath>
</defs>
</svg>
