<svg width="78" height="97" viewBox="0 0 78 97" fill="none" xmlns="http://www.w3.org/2000/svg">
<path d="M71.2302 44.4917C72.6326 43.279 73.2981 41.5983 73.1689 39.5697C73.037 37.5268 72.2769 35.8975 70.906 34.7219C67.7052 31.9743 62.0179 32.4479 57.6614 32.8159C55.3756 32.9985 54.7761 32.5676 54.6699 32.3821C56.1556 30.6216 64.4213 20.2641 59.6431 12.7255C57.8046 9.82658 56.0264 8.48267 54.2109 8.75942C51.7501 9.07043 50.7005 12.1177 50.5542 12.5887C50.018 15.2451 47.8296 22.5525 44.2187 24.4471C39.039 27.1634 34.04 37.5524 33.9483 37.8006L33.0505 39.0048H28.5019V38.805C28.5019 38.1601 27.9741 37.6351 27.3259 37.6351H5.99108C5.34286 37.6351 4.81514 38.1601 4.81514 38.805V67.4438C4.81514 68.0887 5.34286 68.6138 5.99108 68.6138H27.3264C27.9746 68.6138 28.5023 68.0887 28.5023 67.4438V67.1072H30.0654L32.2507 68.6566C32.4515 68.7993 32.6895 68.8764 32.9334 68.8764H62.9186C64.9606 68.8764 66.8392 67.852 67.9433 66.1401C68.8554 64.7277 69.1135 63.0328 68.6575 61.3722C69.9883 60.4306 70.8028 59.2608 71.0839 57.8883C71.4395 56.1677 70.8315 54.5669 70.3153 53.5969C71.6576 52.3158 72.4032 50.8549 72.5409 49.24C72.7102 47.2565 71.8927 45.5331 71.2302 44.4917ZM26.1506 66.2739H7.16702V39.9748H26.1506V40.1746V65.9372V66.2739ZM68.9931 43.2134C68.6863 43.3903 68.4798 43.6957 68.4225 44.0436C68.3679 44.3918 68.4741 44.7484 68.7093 45.008C68.7266 45.028 70.39 46.9054 70.1979 49.0569C70.089 50.2895 69.3719 51.4279 68.0669 52.4466C67.5593 52.8403 67.4674 53.5707 67.8632 54.0786C67.8746 54.0957 69.1251 55.7649 68.7838 57.4198C68.5888 58.3671 67.8746 59.1888 66.6615 59.8622C66.128 60.1619 65.9589 60.918 66.2141 61.4715C66.7304 62.5929 66.6414 63.8341 65.9674 64.8783C65.2964 65.917 64.1578 66.5361 62.9187 66.5361H33.3092L31.1238 64.9867C30.9231 64.8441 30.6851 64.7669 30.4412 64.7669H28.5025V41.3445H33.6448C34.0176 41.3445 34.3675 41.1676 34.5884 40.868L35.9536 38.9962C36.0023 38.8934 40.8263 28.8697 45.3148 26.5129C50.6436 23.7194 52.7717 13.4845 52.8261 13.1764C53.047 12.4917 53.7668 11.1705 54.5068 11.0764C54.7993 11.0479 55.8576 11.1391 57.6588 13.9724C61.8461 20.5836 52.7861 30.9782 52.6942 31.0838C52.6168 31.1695 52.5537 31.2693 52.5048 31.3777C52.2381 31.9712 52.1406 32.9612 52.7401 33.8059C53.5402 34.9273 55.2065 35.3723 58.0631 35.1269C61.8059 34.8101 66.9167 34.385 69.3746 36.4937C70.2579 37.2527 70.7341 38.3084 70.823 39.7179C70.9262 41.3273 70.3469 42.4372 68.9931 43.2134Z" fill="#4660BA"/>
</svg>
