<svg width="181" height="89" viewBox="0 0 181 89" fill="none" xmlns="http://www.w3.org/2000/svg">
<path d="M100.309 0.280664H111.873V14.8471H108.926V2.7505H103.256V14.8471H100.309V0.280664ZM114.876 14.8471V0.280664H119.591C121.387 0.280664 122.538 0.364864 123.071 0.505195C123.913 0.729726 124.615 1.20686 125.176 1.93658C125.737 2.66631 126.018 3.62056 126.018 4.77128C126.018 5.66941 125.85 6.4272 125.541 7.01659C125.204 7.63405 124.811 8.11118 124.306 8.44798C123.801 8.78477 123.296 9.03737 122.79 9.14964C122.089 9.28997 121.078 9.3461 119.759 9.3461H117.823V14.8471H114.876V14.8471ZM117.823 2.7505V6.90433H119.422C120.573 6.90433 121.359 6.82013 121.724 6.6798C122.117 6.53946 122.426 6.28687 122.65 5.95007C122.875 5.61328 122.987 5.24841 122.987 4.82742C122.987 4.29416 122.818 3.84509 122.51 3.5083C122.201 3.1715 121.808 2.94697 121.331 2.86277C120.994 2.80664 120.292 2.7505 119.226 2.7505H117.823ZM127.562 7.63405C127.562 6.14654 127.786 4.91162 128.235 3.90123C128.572 3.1715 129.021 2.49791 129.582 1.90851C130.144 1.31912 130.789 0.870059 131.463 0.589395C132.361 0.196466 133.428 0 134.606 0C136.767 0 138.479 0.673595 139.771 1.99271C141.062 3.3399 141.707 5.19228 141.707 7.54985C141.707 9.90743 141.062 11.7598 139.799 13.0789C138.508 14.398 136.796 15.0716 134.662 15.0716C132.501 15.0716 130.761 14.398 129.498 13.0789C128.207 11.7879 127.562 9.96356 127.562 7.63405ZM130.593 7.54985C130.593 9.20577 130.986 10.4407 131.744 11.3107C132.501 12.1527 133.484 12.6018 134.662 12.6018C135.841 12.6018 136.796 12.1808 137.553 11.3388C138.311 10.4968 138.676 9.23383 138.676 7.52179C138.676 5.8378 138.311 4.60288 137.581 3.78896C136.852 2.97503 135.869 2.55404 134.662 2.55404C133.456 2.55404 132.473 2.97503 131.715 3.78896C130.958 4.60288 130.593 5.86587 130.593 7.54985ZM143.981 14.8471V0.280664H154.758V2.7505H146.927V5.97814H154.197V8.44798H146.927V12.3773H155.039V14.8471H143.981ZM157.593 0.280664H160.54V6.48333C161.185 6.4272 161.634 6.2588 161.859 5.97814C162.083 5.69747 162.448 4.93968 162.925 3.70476C163.543 2.13305 164.132 1.15072 164.75 0.757795C165.367 0.364866 166.349 0.1684 167.697 0.1684C167.753 0.1684 167.893 0.1684 168.118 0.1684V2.35758H167.697C167.107 2.35758 166.658 2.44178 166.377 2.58211C166.097 2.72244 165.872 2.94697 165.704 3.2557C165.535 3.56443 165.283 4.18189 164.946 5.13615C164.778 5.64134 164.581 6.06234 164.357 6.39913C164.16 6.73593 163.767 7.04466 163.262 7.35339C163.908 7.54986 164.469 7.91472 164.89 8.47605C165.311 9.03737 165.788 9.82323 166.293 10.8617L168.286 14.8471H164.834L163.094 11.0862C163.066 11.0301 163.01 10.9178 162.925 10.7775C162.897 10.7214 162.757 10.4968 162.56 10.1039C162.196 9.37417 161.887 8.92511 161.634 8.75671C161.382 8.58831 161.017 8.47605 160.54 8.47605V14.8471H157.593V0.280664ZM173.759 14.8471V2.7505H169.437V0.280664H181V2.7505H176.706V14.8471H173.759ZM98.9901 37.5528V34.9146L106.652 25.4562H99.8602V22.9864H110.525V25.2597L102.555 35.083H110.806V37.5528H98.9901ZM112.687 37.5528V22.9864H123.464V25.4562H115.633V28.6838H122.903V31.1537H115.633V35.111H123.745V37.5809H112.687V37.5528ZM126.243 37.5528V22.9864H129.105L135.112 32.7535V22.9864H137.834V37.5528H134.887L128.993 27.9822V37.5528H126.243V37.5528ZM140.921 22.9864H146.282C147.489 22.9864 148.415 23.0706 149.061 23.267C149.903 23.5196 150.632 23.9687 151.25 24.6142C151.867 25.2597 152.316 26.0456 152.653 26.9718C152.962 27.898 153.13 29.0487 153.13 30.4239C153.13 31.6308 152.99 32.6412 152.681 33.5112C152.316 34.5778 151.811 35.4198 151.137 36.0933C150.632 36.5985 149.931 36.9915 149.089 37.2441C148.443 37.4405 147.573 37.5528 146.478 37.5528H140.949V22.9864H140.921ZM143.868 25.4562V35.083H146.057C146.871 35.083 147.461 35.0268 147.826 34.9426C148.303 34.8304 148.696 34.6339 149.004 34.3252C149.313 34.0445 149.566 33.5674 149.762 32.9219C149.959 32.2763 150.071 31.3782 150.071 30.2555C150.071 29.1329 149.959 28.2628 149.762 27.6734C149.566 27.084 149.285 26.6069 148.92 26.2701C148.555 25.9333 148.106 25.7088 147.573 25.5965C147.18 25.5123 146.366 25.4562 145.159 25.4562H143.868ZM155.628 37.5528V22.9864H166.406V25.4562H158.575V28.6838H165.844V31.1537H158.575V35.111H166.686V37.5809H155.628V37.5528ZM169.184 37.5528V22.9864H172.047L178.053 32.7535V22.9864H180.776V37.5528H177.829L171.935 27.9822V37.5528H169.184V37.5528ZM100.225 60.2866V45.7201H104.631L107.242 55.6556L109.824 45.7201H114.258V60.2866H111.536V48.8355L108.673 60.2866H105.838L102.947 48.8074V60.2585H100.225V60.2866ZM117.205 60.2866V45.7201H127.983V48.19H120.152V51.4176H127.421V53.8874H120.152V57.8448H128.263V60.3146H117.205V60.2866ZM130.761 45.7201H136.122C137.329 45.7201 138.255 45.8043 138.9 46.0008C139.742 46.2534 140.472 46.7024 141.09 47.348C141.707 47.9935 142.156 48.7793 142.493 49.7055C142.802 50.6317 142.97 51.7824 142.97 53.1577C142.97 54.3645 142.83 55.3749 142.521 56.245C142.156 57.3115 141.651 58.1535 140.977 58.8271C140.472 59.3323 139.771 59.7252 138.929 59.9778C138.283 60.1743 137.413 60.2866 136.318 60.2866H130.789V45.7201H130.761ZM133.708 48.19V57.8167H135.897C136.711 57.8167 137.301 57.7606 137.666 57.6764C138.143 57.5641 138.536 57.3677 138.844 57.0589C139.153 56.7783 139.406 56.3011 139.602 55.6556C139.799 55.0101 139.911 54.112 139.911 52.9893C139.911 51.8666 139.799 50.9966 139.602 50.4072C139.406 49.8178 139.125 49.3407 138.76 49.0039C138.395 48.6671 137.946 48.4425 137.413 48.3303C137.02 48.2461 136.206 48.19 134.999 48.19H133.708V48.19Z" fill="#009FE3"/>
<path fill-rule="evenodd" clip-rule="evenodd" d="M43.8116 19.2256C43.8116 9.23395 35.6162 1.03857 25.6246 1.03857H0V26.6632C0 36.6548 8.19538 44.8502 18.187 44.8502C8.19538 44.8502 0 53.0456 0 63.0372V88.6618H25.6246C35.6162 88.6618 43.8116 80.4664 43.8116 70.4748C43.8116 80.4664 52.007 88.6618 61.9986 88.6618H87.6232V63.0372C87.6232 53.0456 79.4278 44.8502 69.4362 44.8502C79.4278 44.8502 87.6232 36.6548 87.6232 26.6632V1.03857H61.9986C52.007 1.03857 43.8116 9.23395 43.8116 19.2256Z" fill="#009FE3"/>
<path fill-rule="evenodd" clip-rule="evenodd" d="M46.8989 47.9653H70.0537C78.0526 47.9653 84.6201 54.5329 84.6201 62.5318V85.6865H61.4654C53.4665 85.6865 46.8989 79.119 46.8989 71.1201V47.9653Z" fill="#E3121B"/>
<path fill-rule="evenodd" clip-rule="evenodd" d="M40.7244 41.7627H17.5696C9.5707 41.7627 3.00317 35.1952 3.00317 27.1963V4.0415H26.1579C34.1568 4.0415 40.7244 10.609 40.7244 18.6079V41.7627Z" fill="#322E86"/>
<path fill-rule="evenodd" clip-rule="evenodd" d="M46.8989 41.7627H70.0537C78.0526 41.7627 84.6201 35.1952 84.6201 27.1963V4.0415H61.4654C53.4665 4.0415 46.8989 10.609 46.8989 18.6079V41.7627Z" fill="#5EB130"/>
<path fill-rule="evenodd" clip-rule="evenodd" d="M40.7244 47.9653H17.5696C9.5707 47.9653 3.00317 54.5329 3.00317 62.5318V85.6865H26.1579C34.1568 85.6865 40.7244 79.119 40.7244 71.1201V47.9653Z" fill="#EF7A00"/>
<path fill-rule="evenodd" clip-rule="evenodd" d="M14.37 28.4597C14.37 28.4597 16.054 25.4286 18.4677 24.2217C20.8814 22.9868 23.9687 21.4712 25.2036 20.6573C26.4385 19.8434 27.477 19.1978 27.477 19.1978L27.4489 21.0221C27.4489 21.0221 28.7961 20.7134 30.1713 19.4504C31.5466 18.1874 31.8553 17.149 31.8553 17.149C33.2867 16.9525 37.5809 17.4297 37.4686 16.6157C37.216 14.8756 34.69 13.4162 33.0902 13.1636C31.3782 12.8829 29.9468 13.1916 27.6734 13.9494C25.4001 14.7072 22.2005 17.0929 18.7203 20.1521C15.24 23.2113 12.1247 27.73 12.1247 27.73L12.0685 27.8703C12.0685 27.8703 10.132 28.0949 8.9251 29.1053C7.69018 30.1157 6.28687 31.9961 6.28687 31.9961C6.28687 31.9961 7.80245 31.968 9.4303 31.6593C11.0581 31.3506 12.0685 31.0418 12.0685 31.0418C12.0685 31.0418 13.0509 32.4171 14.0332 32.5013C15.0155 32.5855 16.6434 34.1291 16.6434 34.1291C16.6434 34.1291 16.9521 30.7331 14.37 28.4597ZM33.0341 12.3777C32.4167 12.069 31.7711 11.8725 31.1537 11.8164C28.0383 11.5357 26.4385 11.7041 25.0352 12.2374C23.6319 12.7987 23.2951 13.1636 23.2951 13.1636C23.2951 13.1636 22.1444 12.3777 19.9271 11.9848C17.7379 11.5919 16.1101 11.8444 16.1101 11.8444C16.1101 11.8444 17.766 12.7706 18.2993 13.8091C18.8606 14.8475 18.9448 16.4193 18.9448 16.4193C18.9448 16.4193 17.5415 18.8049 15.9978 20.9941C15.5488 21.6396 15.0155 22.5097 14.5103 23.4078C17.6818 19.7311 20.8252 16.4193 25.2036 13.9775C28.74 11.9848 33.006 12.3777 33.0341 12.3777Z" fill="white"/>
<path fill-rule="evenodd" clip-rule="evenodd" d="M65.0578 6.45508C69.0713 6.45508 72.3831 9.45818 72.8883 13.3313C73.0006 13.3033 73.1129 13.3033 73.197 13.3033C73.9268 13.3033 74.2636 13.8927 74.011 14.6224C73.8145 15.1557 73.3374 15.6328 72.8041 15.8292C72.6919 16.4186 72.5235 16.98 72.2709 17.4852C72.9725 18.0746 74.5723 19.4217 75.7511 20.6286C77.2667 22.2284 78.6139 23.4633 77.6035 24.7824C76.5931 26.1015 75.3862 25.2034 75.3862 25.2034L72.9164 23.4352C72.9164 23.4352 72.9164 23.4352 73.6461 26.1015C74.3758 28.7678 74.2355 31.8271 74.1232 33.6795C74.039 35.5318 72.7199 38.1139 71.1482 38.1139C69.5765 38.1139 69.3239 35.9528 69.3239 35.9528L69.1836 33.9882H66.4892C66.4892 33.9882 66.4892 33.9882 66.4611 35.7564C66.4331 37.5245 66.1524 39.3489 64.3 39.3208C62.4476 39.2927 61.9986 37.3561 61.4653 34.353C60.904 31.3219 60.9882 25.2876 60.9882 25.2876C60.9882 25.2876 60.7356 25.3157 59.0235 26.298C57.3115 27.2803 55.7678 28.3468 54.5048 28.0662C53.2419 27.7855 53.4664 26.4664 53.7751 25.8489C54.0277 25.3157 58.5464 21.4145 59.8936 20.2637C59.2481 19.7024 58.6867 19.0288 58.2657 18.271C58.2377 18.271 58.2096 18.271 58.1815 18.271C57.4518 18.271 56.666 17.6816 56.3853 16.9519C56.1046 16.2222 56.4695 15.6328 57.1992 15.6328C57.2273 15.6328 57.2834 15.6328 57.3115 15.6328C57.2554 15.2118 57.1992 14.7908 57.1992 14.3417C57.1992 11.4228 58.7709 8.89685 61.1004 7.5216C60.8198 7.97066 60.6514 8.44779 60.6233 8.95299C60.5672 9.68271 60.8198 10.4405 61.353 10.9738C61.8863 11.5351 62.616 11.7877 63.3458 11.7877C64.0755 11.7596 64.8333 11.479 65.4227 10.9176C65.8717 10.4686 66.1243 9.90724 66.1805 9.34591C66.2085 8.78459 66.0401 8.1952 65.6191 7.7742C65.1981 7.35321 64.6368 7.12867 64.0755 7.15674C63.5142 7.15674 62.9248 7.40934 62.4757 7.83033C62.167 8.13906 61.9705 8.53199 61.9424 8.92492C61.9144 9.34591 62.0547 9.73884 62.3354 10.0476C62.616 10.3563 63.037 10.4966 63.43 10.4966C63.8229 10.4966 64.2439 10.3282 64.5526 10.0195C64.7491 9.85111 64.8333 9.59851 64.8613 9.37398C64.8894 9.12139 64.8052 8.89685 64.6087 8.70039C64.4403 8.50392 64.1877 8.41973 63.9351 8.44779C63.7106 8.44779 63.458 8.56006 63.2616 8.72846C63.1493 8.84072 63.1493 9.00912 63.2616 9.14945C63.3738 9.26172 63.5422 9.26172 63.6826 9.14945C63.7668 9.06525 63.851 9.03719 63.9632 9.03719C64.0474 9.03719 64.1316 9.06525 64.1877 9.12138C64.2439 9.17752 64.2719 9.26172 64.2719 9.34591C64.2719 9.43011 64.2158 9.54238 64.1316 9.62658C63.9071 9.82304 63.6545 9.93531 63.3738 9.93531C63.1212 9.93531 62.8686 9.85111 62.7002 9.65465C62.5318 9.45818 62.4476 9.23365 62.4757 8.98105C62.5038 8.72845 62.616 8.44779 62.8406 8.25133C63.2054 7.91453 63.6264 7.74613 64.0474 7.71806C64.4684 7.71806 64.8613 7.8584 65.1701 8.16713C65.4788 8.47586 65.5911 8.89686 65.563 9.31785C65.5349 9.73885 65.3385 10.1879 65.0017 10.5247C64.5245 11.0018 63.9071 11.2264 63.3177 11.2544C62.7283 11.2544 62.167 11.058 61.746 10.637C61.325 10.216 61.1566 9.62658 61.1846 9.03719C61.2408 8.0268 61.774 7.38127 62.0547 7.10061C63.009 6.67961 64.0193 6.45508 65.0578 6.45508ZM67.2189 28.5433C67.8083 28.5433 68.2854 28.9082 68.2854 29.3292C68.2854 29.7782 67.8083 30.115 67.2189 30.115C66.6295 30.115 66.1524 29.7502 66.1524 29.3292C66.1524 28.9082 66.6295 28.5433 67.2189 28.5433ZM67.3312 24.6702C67.9206 24.6702 68.3977 25.035 68.3977 25.456C68.3977 25.9051 67.9206 26.2419 67.3312 26.2419C66.7418 26.2419 66.2647 25.877 66.2647 25.456C66.2647 25.035 66.7418 24.6702 67.3312 24.6702ZM74.7968 23.9685L76.2843 22.2003C75.8914 21.7512 75.4985 21.3583 75.274 21.1338C74.3478 20.1515 73.0567 18.9165 72.0463 18.0465C70.7272 20.5444 68.089 22.2284 65.0859 22.2284C63.3738 22.2284 61.774 21.6671 60.483 20.7409C59.5287 21.5829 58.1254 22.6494 57.1992 23.4914C56.7502 23.9124 56.273 24.3334 55.824 24.7544L57.5921 26.3822C58.0412 26.1296 58.4341 25.877 58.7148 25.7086C59.1077 25.4841 60.4549 24.6702 60.932 24.614L61.7179 24.5018V25.2876C61.6898 27.0558 61.746 28.8801 61.8302 30.6483C61.8863 31.8271 61.9705 33.062 62.195 34.2127C62.3634 35.2231 62.7564 37.8613 63.6826 38.4507C63.879 38.5911 64.1316 38.6191 64.3561 38.6191C65.8156 38.6472 65.8156 36.7668 65.8156 35.7283C65.8156 35.1389 65.8156 34.5495 65.8437 33.932L65.8717 33.2585H69.8291L70.0256 35.8406C70.1098 36.43 70.4465 37.3842 71.1763 37.3842C72.0463 37.3842 72.7761 35.9809 73.0567 35.3073C73.2532 34.774 73.4216 34.1847 73.4496 33.5953C73.5619 31.1816 73.6461 28.5994 72.9725 26.2419C72.7199 25.3437 72.4954 24.4737 72.2428 23.5756L71.7095 21.6671L74.7968 23.9685ZM67.668 13.3875C68.0328 13.2191 68.51 13.4717 68.7345 13.9488C68.959 14.4259 68.8468 14.9311 68.4819 15.0995C68.117 15.2679 67.6399 15.0153 67.4154 14.5382C67.1908 14.0891 67.3031 13.5559 67.668 13.3875ZM61.8021 14.6785C62.167 14.5101 62.6441 14.7627 62.8686 15.2399C63.0932 15.717 62.9809 16.2222 62.616 16.3906C62.2512 16.559 61.774 16.3064 61.5495 15.8292C61.325 15.3802 61.4372 14.8469 61.8021 14.6785ZM62.2231 18.692C62.1108 18.5798 62.1108 18.3833 62.2231 18.271C62.3354 18.1588 62.5318 18.1588 62.6441 18.271C62.6441 18.271 63.7106 19.4779 65.5911 19.3095C67.4154 19.1411 68.0328 17.2606 68.0328 17.2606C68.089 17.1203 68.2574 17.0361 68.3977 17.0922C68.538 17.1484 68.6222 17.3168 68.5661 17.4571C68.5661 17.4571 67.8364 19.6743 65.6191 19.8708C63.4861 20.1234 62.2512 18.692 62.2231 18.692Z" fill="white"/>
<path fill-rule="evenodd" clip-rule="evenodd" d="M9.73903 55.4871C9.57063 57.171 8.13925 58.4901 6.4272 58.4901C6.37106 58.4901 6.343 58.4901 6.28687 58.4901V59.6409C6.343 59.6409 6.37106 59.6409 6.4272 59.6409C8.08311 59.6409 9.54256 58.7427 10.3284 57.3675C11.1143 58.7147 12.5457 59.6409 14.2296 59.6409C15.8856 59.6409 17.345 58.7427 18.1309 57.3675C18.9167 58.7147 20.3481 59.6409 22.0321 59.6409C23.688 59.6409 25.1475 58.7427 25.9333 57.3675C26.7192 58.7147 28.1506 59.6409 29.8345 59.6409C31.4905 59.6409 32.9499 58.7427 33.7358 57.3675C34.4936 58.6866 35.8969 59.5847 37.4967 59.6128V58.4621C35.8408 58.3779 34.4936 57.1149 34.3252 55.459H33.1744C33.006 57.143 31.5747 58.4621 29.8626 58.4621C28.1225 58.4621 26.7192 57.143 26.5508 55.459H25.4001C25.2317 57.143 23.8003 58.4621 22.0882 58.4621C20.3481 58.4621 18.9448 57.143 18.7764 55.459H17.6257C17.4573 57.143 16.0259 58.4621 14.3138 58.4621C12.5737 58.4621 11.1704 57.143 11.002 55.459L9.73903 55.4871ZM9.73903 73.9828C9.57063 75.6668 8.13925 76.9859 6.4272 76.9859C6.37106 76.9859 6.343 76.9859 6.28687 76.9859V78.1366C6.343 78.1366 6.37106 78.1366 6.4272 78.1366C8.08311 78.1366 9.54256 77.2385 10.3284 75.8632C11.1143 77.2104 12.5457 78.1366 14.2296 78.1366C15.8856 78.1366 17.345 77.2385 18.1309 75.8632C18.9167 77.2104 20.3481 78.1366 22.0321 78.1366C23.688 78.1366 25.1475 77.2385 25.9333 75.8632C26.7192 77.2104 28.1506 78.1366 29.8345 78.1366C31.4905 78.1366 32.9499 77.2385 33.7358 75.8632C34.4936 77.1824 35.8969 78.0805 37.4967 78.1085V76.9578C35.8408 76.8736 34.4936 75.6106 34.3252 73.9547H33.1744C33.006 75.6387 31.5747 76.9578 29.8626 76.9578C28.1225 76.9578 26.7192 75.6387 26.5508 73.9547H25.4001C25.2317 75.6387 23.8003 76.9578 22.0882 76.9578C20.3481 76.9578 18.9448 75.6387 18.7764 73.9547H17.6257C17.4573 75.6387 16.0259 76.9578 14.3138 76.9578C12.5737 76.9578 11.1704 75.6387 11.002 73.9547L9.73903 73.9828ZM9.73903 69.3518C9.57063 71.0358 8.13925 72.3549 6.4272 72.3549C6.37106 72.3549 6.343 72.3549 6.28687 72.3549V73.5057C6.343 73.5057 6.37106 73.5057 6.4272 73.5057C8.08311 73.5057 9.54256 72.6075 10.3284 71.2323C11.1143 72.5795 12.5457 73.5057 14.2296 73.5057C15.8856 73.5057 17.345 72.6075 18.1309 71.2323C18.9167 72.5795 20.3481 73.5057 22.0321 73.5057C23.688 73.5057 25.1475 72.6075 25.9333 71.2323C26.7192 72.5795 28.1506 73.5057 29.8345 73.5057C31.4905 73.5057 32.9499 72.6075 33.7358 71.2323C34.4936 72.5514 35.8969 73.4495 37.4967 73.4776V72.3269C35.8408 72.2427 34.4936 70.9797 34.3252 69.3238H33.1744C33.006 71.0077 31.5747 72.3269 29.8626 72.3269C28.1225 72.3269 26.7192 71.0077 26.5508 69.3238H25.4001C25.2317 71.0077 23.8003 72.3269 22.0882 72.3269C20.3481 72.3269 18.9448 71.0077 18.7764 69.3238H17.6257C17.4573 71.0077 16.0259 72.3269 14.3138 72.3269C12.5737 72.3269 11.1704 71.0077 11.002 69.3238L9.73903 69.3518ZM9.73903 64.7209C9.57063 66.4049 8.13925 67.724 6.4272 67.724C6.37106 67.724 6.343 67.724 6.28687 67.724V68.8747C6.343 68.8747 6.37106 68.8747 6.4272 68.8747C8.08311 68.8747 9.54256 67.9766 10.3284 66.6013C11.1143 67.9485 12.5457 68.8747 14.2296 68.8747C15.8856 68.8747 17.345 67.9766 18.1309 66.6013C18.9167 67.9485 20.3481 68.8747 22.0321 68.8747C23.688 68.8747 25.1475 67.9766 25.9333 66.6013C26.7192 67.9485 28.1506 68.8747 29.8345 68.8747C31.4905 68.8747 32.9499 67.9766 33.7358 66.6013C34.4936 67.9205 35.8969 68.8186 37.4967 68.8466V67.6959C35.8408 67.6117 34.4936 66.3487 34.3252 64.6928H33.1744C33.006 66.3768 31.5747 67.6959 29.8626 67.6959C28.1225 67.6959 26.7192 66.3768 26.5508 64.6928H25.4001C25.2317 66.3768 23.8003 67.6959 22.0882 67.6959C20.3481 67.6959 18.9448 66.3768 18.7764 64.6928H17.6257C17.4573 66.3768 16.0259 67.6959 14.3138 67.6959C12.5737 67.6959 11.1704 66.3768 11.002 64.6928L9.73903 64.7209ZM9.73903 60.118C9.57063 61.802 8.13925 63.1211 6.4272 63.1211C6.37106 63.1211 6.343 63.1211 6.28687 63.1211V64.2718C6.343 64.2718 6.37106 64.2718 6.4272 64.2718C8.08311 64.2718 9.54256 63.3737 10.3284 61.9984C11.1143 63.3456 12.5457 64.2718 14.2296 64.2718C15.8856 64.2718 17.345 63.3737 18.1309 61.9984C18.9167 63.3456 20.3481 64.2718 22.0321 64.2718C23.688 64.2718 25.1475 63.3737 25.9333 61.9984C26.7192 63.3456 28.1506 64.2718 29.8345 64.2718C31.4905 64.2718 32.9499 63.3737 33.7358 61.9984C34.4936 63.3176 35.8969 64.2157 37.4967 64.2438V63.093C35.8408 63.0088 34.4936 61.7459 34.3252 60.0899H33.1744C33.006 61.7739 31.5747 63.093 29.8626 63.093C28.1225 63.093 26.7192 61.7739 26.5508 60.0899H25.4001C25.2317 61.7739 23.8003 63.093 22.0882 63.093C20.3481 63.093 18.9448 61.7739 18.7764 60.0899H17.6257C17.4573 61.7739 16.0259 63.093 14.3138 63.093C12.5737 63.093 11.1704 61.7739 11.002 60.0899L9.73903 60.118Z" fill="white"/>
<path fill-rule="evenodd" clip-rule="evenodd" d="M64.4965 58.5746C68.3416 58.5746 71.457 61.69 71.457 65.5351C71.457 69.3802 68.3416 72.4955 64.4965 72.4955C60.6514 72.4955 57.536 69.3802 57.536 65.5351C57.536 61.69 60.6514 58.5746 64.4965 58.5746ZM63.009 57.2836H63.037C63.5142 57.1994 63.9913 57.1713 64.4684 57.1713C64.9456 57.1713 65.4227 57.1994 65.8718 57.2836L64.4404 49.2285L63.009 57.2836ZM59.1078 59.1359L59.1358 59.1079C59.8656 58.5185 60.6795 58.0133 61.5776 57.6765L56.3011 51.4177L59.1078 59.1359ZM56.6099 62.6723C56.9466 61.7461 57.4518 60.9041 58.0412 60.1744L50.3511 57.3958L56.6099 62.6723ZM56.245 66.9945V66.9665C56.1608 66.4893 56.1327 66.0122 56.1327 65.5351C56.1327 65.0579 56.1608 64.5808 56.245 64.1318L48.1899 65.5631L56.245 66.9945ZM58.0693 70.9238L58.0412 70.8958C57.4518 70.166 56.9466 69.3521 56.6099 68.454L50.3511 73.7305L58.0693 70.9238ZM61.6337 73.4217C60.7075 73.0849 59.8656 72.5797 59.1358 71.9903L56.3573 79.6805L61.6337 73.4217ZM65.956 73.7866H65.9279C65.4508 73.8708 64.9736 73.8989 64.4965 73.8989C64.0194 73.8989 63.5422 73.8708 63.0932 73.7866L64.5246 81.8416L65.956 73.7866ZM69.8852 71.9623L69.8572 71.9903C69.1275 72.5797 68.3135 73.0849 67.4154 73.4217L72.6919 79.6805L69.8852 71.9623ZM72.3551 68.3978C72.0183 69.324 71.5131 70.166 70.9237 70.8958L78.6139 73.6743L72.3551 68.3978ZM72.748 64.0756V64.1037C72.8322 64.5808 72.8603 65.0579 72.8603 65.5351C72.8603 66.0122 72.8322 66.4893 72.748 66.9384L80.8031 65.507L72.748 64.0756ZM70.8956 60.1463L70.9237 60.1744C71.5131 60.9041 72.0183 61.7181 72.3551 62.6162L78.6139 57.3397L70.8956 60.1463ZM67.3312 57.6484C68.2574 57.9852 69.0994 58.4904 69.8291 59.0798L72.6077 51.3896L67.3312 57.6484Z" fill="white"/>
</svg>
